<svg width="384" height="678" fill="none" xmlns="http://www.w3.org/2000/svg"><path fill-rule="evenodd" clip-rule="evenodd" d="M182.685 487.355c6.455 0 11.674-5.202 11.674-11.51 0-6.4-5.219-11.654-11.674-11.654-6.401 0-11.678 5.258-11.678 11.654.004 6.304 5.277 11.51 11.678 11.51zm180.534 11.071c-11.427 0-20.74-9.193-20.74-20.449 0-11.252 9.313-20.593 20.74-20.593 11.39 0 20.781 9.341 20.781 20.593-.004 11.256-9.391 20.449-20.781 20.449zm-32.488 52.772c-14.075 0-25.408-11.272-25.408-25.083 0-13.863 11.333-25.171 25.408-25.171 14.002 0 25.434 11.308 25.434 25.171-.004 13.815-11.436 25.083-25.434 25.083zm-61.863 41.448c-15.599 0-28.299-12.652-28.299-28.044 0-15.536 12.704-28.003 28.299-28.003 15.669 0 28.378 12.467 28.378 28.003.004 15.392-12.704 28.044-28.378 28.044zm-70.982 41.444c-19.163 0-34.849-15.484-34.849-34.533 0-18.823 15.69-34.202 34.849-34.202 19.163 0 34.762 15.379 34.762 34.202 0 19.049-15.599 34.533-34.762 34.533zm-140.224 3.347c14.018.921 24.735 12.91 23.91 26.624-.337 5.225-2.213 10.19-5.33 13.935H36.113c-3.753-4.594-5.777-10.572-5.44-16.985.92-13.79 13.028-24.419 26.989-23.574zm64.277-37.546c15.636.95 27.569 14.233 26.633 29.677-.937 15.444-14.561 27.251-30.102 26.205-15.559-.941-27.516-14.16-26.686-29.66 1.084-15.448 14.634-27.215 30.155-26.222zm192.479-147.439c10.228 0 18.49-8.126 18.49-18.312 0-10.082-8.258-18.276-18.49-18.276-10.188 0-18.449 8.198-18.449 18.276 0 10.186 8.261 18.312 18.449 18.312zm-64.803-36.001c7.921 0 14.375-6.364 14.375-14.012 0-7.909-6.454-14.305-14.375-14.305-7.999 0-14.396 6.396-14.396 14.305 0 7.648 6.397 14.012 14.396 14.012zM363.219 40.929c-11.427 0-20.74-9.212-20.74-20.465C342.479 9.177 351.792 0 363.219 0 374.609 0 384 9.176 384 20.465c-.004 11.252-9.391 20.464-20.781 20.464zm-32.488 52.776c-14.075 0-25.408-11.236-25.408-25.102 0-13.863 11.333-25.172 25.408-25.172 14.002 0 25.434 11.305 25.434 25.172-.004 13.867-11.436 25.103-25.434 25.103zm-61.863 41.408c-15.599 0-28.299-12.539-28.299-27.951 0-15.448 12.704-28.1 28.299-28.1 15.669 0 28.378 12.652 28.378 28.1.004 15.412-12.704 27.951-28.378 27.951zm-70.982 41.428c-19.163 0-34.849-15.412-34.849-34.48 0-18.936 15.69-34.255 34.849-34.255 19.163 0 34.762 15.319 34.762 34.255 0 19.068-15.599 34.48-34.762 34.48zm-140.224 3.44c14.018.752 24.735 12.78 23.91 26.587-.862 13.811-12.947 24.495-26.949 23.61-14.042-.772-24.755-12.833-23.946-26.639.915-13.811 13.024-24.48 26.985-23.558zm64.277-37.586c15.636.917 27.569 14.269 26.633 29.548-.937 15.597-14.561 27.384-30.102 26.426-15.559-1.066-27.516-14.269-26.686-29.697 1.084-15.355 14.634-27.271 30.155-26.277zm-99.865 89.642c11.415.644 20.137 10.427 19.484 21.607-.698 11.144-10.664 19.917-22.034 19.197C8.076 272.125-.674 262.418.041 251.146c.73-11.26 10.622-19.809 22.033-19.109zm89.563 121.194c7.847 0 14.207-6.231 14.207-14.048 0-7.76-6.36-13.992-14.207-13.992-7.769 0-14.109 6.232-14.109 13.992 0 7.817 6.34 14.048 14.109 14.048zm0 101.486c7.847 0 14.207-6.272 14.207-13.992 0-7.724-6.36-14.032-14.207-14.032-7.769 0-14.109 6.308-14.109 14.032 0 7.72 6.34 13.992 14.109 13.992zm-57.99-31.17c10.4 0 18.801-8.275 18.801-18.497 0-10.339-8.405-18.537-18.802-18.537-10.29 0-18.695 8.198-18.695 18.537 0 10.222 8.405 18.497 18.695 18.497zm-31.573-90.101c11.415.628 20.137 10.335 19.484 21.607-.698 11.381-10.664 20.002-22.034 19.286-11.448-.66-20.198-10.536-19.483-21.675.73-11.385 10.622-19.954 22.033-19.218zM363.22 142.503c-11.427 0-20.74-9.305-20.74-20.722 0-11.163 9.313-20.279 20.74-20.279 11.39 0 20.781 9.12 20.781 20.279-.004 11.417-9.391 20.722-20.781 20.722zm-32.488 52.777c-14.075 0-25.408-11.329-25.408-25.284 0-13.867 11.333-25.135 25.408-25.135 14.002 0 25.434 11.268 25.434 25.135-.004 13.959-11.436 25.284-25.434 25.284zm-61.863 41.335c-15.599 0-28.299-12.616-28.299-28.027 0-15.557 12.704-28.076 28.299-28.076 15.669 0 28.378 12.519 28.378 28.076.004 15.415-12.704 28.027-28.378 28.027zm-70.982 41.372c-19.163 0-34.849-15.356-34.849-34.424 0-18.791 15.69-34.199 34.849-34.199 19.163 0 34.762 15.408 34.762 34.199 0 19.068-15.599 34.424-34.762 34.424zm-140.224 3.455c14.018.922 24.735 12.833 23.91 26.551-.862 13.811-12.947 24.512-26.949 23.611-14.042-.809-24.755-12.761-23.946-26.551.915-13.863 13.024-24.544 26.985-23.611zm64.277-37.622c15.636.958 27.569 14.213 26.633 29.717-.937 15.263-14.561 27.215-30.102 26.258-15.559-.901-27.516-14.342-26.686-29.717 1.084-15.368 14.634-27.171 30.155-26.258zm127.676 274.245c7.921 0 14.375-6.4 14.375-14.2 0-7.865-6.454-14.121-14.375-14.121-7.999 0-14.396 6.252-14.396 14.121 0 7.8 6.397 14.2 14.396 14.2zm113.604 81.826c-11.427 0-20.74-9.272-20.74-20.488 0-11.252 9.313-20.408 20.74-20.408 11.39 0 20.781 9.156 20.781 20.408-.004 11.22-9.391 20.488-20.781 20.488zm-32.488 52.885c-14.075 0-25.408-11.348-25.408-25.119 0-14.015 11.333-25.227 25.408-25.227 14.002 0 25.434 11.212 25.434 25.227-.004 13.771-11.436 25.119-25.434 25.119zM243.365 678c-1.913-3.621-2.796-7.664-2.796-12.02 0-15.428 12.704-27.915 28.299-27.915 15.669 0 28.378 12.487 28.378 27.915 0 4.356-.887 8.399-2.702 12.02h-51.179zm-71.286 0c6.406-6.875 15.562-11.248 25.807-11.248 10.175 0 19.315 4.377 25.823 11.248h-51.63zm10.606-292.183c6.455 0 11.674-5.15 11.674-11.474 0-6.344-5.219-11.473-11.674-11.473-6.401 0-11.678 5.129-11.678 11.473.004 6.324 5.277 11.474 11.678 11.474z" fill="#31A49A"/></svg>