<svg width="93" height="134" fill="none" xmlns="http://www.w3.org/2000/svg"><path fill-rule="evenodd" clip-rule="evenodd" d="M58.39 121.778c0 3.333 1.851 6.645 5.73 6.645 3.866 0 5.718-3.301 5.718-6.645 0-3.33-1.852-6.643-5.719-6.643-3.878 0-5.73 3.33-5.73 6.643zm-37.018-9.084h3.498v7.542h8.015v-7.542h3.495v18.164h-3.495v-7.525H24.87v7.525h-3.5v-18.164zm34.137 18.165l-7.653-9.958 7.59-8.207h-4.003l-8.02 8.431v-8.431h-3.49v18.164h3.49v-5.196l2.237-2.421 6.098 7.616h3.75v.002zm-42.701-3.101H6.122l1.843-11.979h4.843v11.979zm6.314 0h-2.828v-15.064H4.903l-2.324 15.064H0V134h3.498v-3.142H15.62V134h3.501v-6.242zm67.184 0h-6.67l1.828-11.979h4.842v11.979zm6.33 0h-2.823v-15.064H78.44l-2.324 15.064h-2.605V134h3.501v-3.142h12.125V134h3.498v-6.242zm-37.57-5.98c0 4.807 2.932 9.546 9.053 9.546 6.116 0 9.053-4.739 9.053-9.546 0-4.814-2.937-9.546-9.053-9.546-6.121 0-9.053 4.749-9.053 9.546zM88.31 29.06H4.36v-1.614h83.95v1.614z" fill="#fff"/><path fill-rule="evenodd" clip-rule="evenodd" d="M44.848 76.946c1.02 0 1.845-.82 1.845-1.817a1.846 1.846 0 00-3.691 0c0 .995.834 1.817 1.846 1.817zm28.543 1.748c-1.807 0-3.28-1.451-3.28-3.228 0-1.777 1.473-3.252 3.28-3.252 1.8 0 3.285 1.475 3.285 3.252 0 1.777-1.485 3.228-3.285 3.228zm-5.137 8.332c-2.225 0-4.017-1.78-4.017-3.96 0-2.189 1.792-3.974 4.017-3.974 2.214 0 4.021 1.785 4.021 3.974 0 2.181-1.808 3.96-4.02 3.96zm-9.78 6.544c-2.467 0-4.475-1.997-4.475-4.427 0-2.453 2.009-4.422 4.474-4.422 2.478 0 4.487 1.969 4.487 4.422 0 2.43-2.008 4.427-4.486 4.427zm-11.223 6.544c-3.03 0-5.51-2.445-5.51-5.452 0-2.972 2.48-5.4 5.51-5.4s5.496 2.428 5.496 5.4c0 3.007-2.466 5.452-5.496 5.452zm-22.17.528c2.217.146 3.911 2.038 3.78 4.204-.053.825-.35 1.609-.842 2.2h-6.345a3.888 3.888 0 01-.86-2.682c.146-2.177 2.06-3.855 4.267-3.722zm10.163-5.928c2.472.15 4.358 2.248 4.21 4.686-.148 2.438-2.302 4.302-4.759 4.137-2.46-.148-4.35-2.235-4.219-4.683.172-2.439 2.314-4.297 4.768-4.14zm30.431-23.278c1.617 0 2.923-1.283 2.923-2.892 0-1.591-1.305-2.885-2.923-2.885-1.61 0-2.917 1.294-2.917 2.885a2.897 2.897 0 002.917 2.892zM55.43 65.752c1.252 0 2.272-1.005 2.272-2.213a2.267 2.267 0 00-2.273-2.258 2.262 2.262 0 00-2.276 2.258c0 1.208 1.012 2.213 2.276 2.213zm17.96-59.29c-1.806 0-3.278-1.454-3.278-3.23C70.112 1.448 71.584 0 73.39 0c1.8 0 3.285 1.449 3.285 3.231 0 1.777-1.485 3.231-3.285 3.231zm-5.136 8.333c-2.225 0-4.017-1.774-4.017-3.964 0-2.188 1.792-3.974 4.017-3.974 2.214 0 4.021 1.785 4.021 3.974 0 2.19-1.808 3.964-4.02 3.964zm-9.78 6.537c-2.467 0-4.475-1.98-4.475-4.413 0-2.439 2.009-4.436 4.474-4.436 2.478 0 4.487 1.997 4.487 4.436 0 2.434-2.008 4.413-4.486 4.413zM47.25 27.873c-3.03 0-5.51-2.433-5.51-5.444 0-2.99 2.48-5.408 5.51-5.408s5.496 2.419 5.496 5.408c0 3.011-2.466 5.444-5.496 5.444zm-22.17.543c2.217.12 3.911 2.018 3.78 4.198-.136 2.18-2.046 3.868-4.26 3.728-2.22-.122-3.914-2.026-3.786-4.206.145-2.18 2.06-3.865 4.266-3.72zm10.163-5.934c2.472.145 4.358 2.253 4.21 4.665-.148 2.463-2.302 4.324-4.759 4.173-2.46-.169-4.35-2.253-4.219-4.689.172-2.424 2.314-4.306 4.768-4.149zm-15.79 14.153c1.806.102 3.184 1.647 3.081 3.412-.11 1.76-1.686 3.145-3.483 3.03-1.81-.112-3.194-1.645-3.08-3.425.115-1.777 1.679-3.127 3.483-3.017zm14.16 19.135c1.242 0 2.247-.984 2.247-2.218 0-1.225-1.005-2.209-2.246-2.209-1.228 0-2.23.984-2.23 2.21a2.22 2.22 0 002.23 2.217zm0 16.023c1.242 0 2.247-.99 2.247-2.209 0-1.22-1.005-2.215-2.246-2.215-1.228 0-2.23.996-2.23 2.215 0 1.22 1.002 2.21 2.23 2.21zm-9.168-4.92c1.645 0 2.973-1.307 2.973-2.921 0-1.633-1.329-2.927-2.973-2.927-1.626 0-2.955 1.294-2.955 2.927 0 1.614 1.329 2.92 2.955 2.92zm-4.991-14.227c1.805.1 3.183 1.632 3.08 3.412-.11 1.797-1.686 3.158-3.483 3.045-1.81-.104-3.194-1.664-3.08-3.422.115-1.798 1.679-3.15 3.483-3.034zM73.39 22.5a3.28 3.28 0 01-3.28-3.271c0-1.763 1.473-3.202 3.28-3.202 1.8 0 3.285 1.44 3.285 3.201 0 1.803-1.485 3.272-3.285 3.272zm-5.137 8.333c-2.225 0-4.017-1.789-4.017-3.992 0-2.19 1.792-3.968 4.017-3.968 2.214 0 4.021 1.779 4.021 3.968 0 2.204-1.808 3.992-4.02 3.992zm-9.78 6.526c-2.467 0-4.475-1.992-4.475-4.425 0-2.456 2.009-4.433 4.474-4.433 2.478 0 4.487 1.977 4.487 4.433 0 2.434-2.008 4.425-4.486 4.425zM47.25 43.89c-3.03 0-5.51-2.424-5.51-5.435 0-2.967 2.48-5.4 5.51-5.4s5.496 2.433 5.496 5.4c0 3.01-2.466 5.435-5.496 5.435zm-22.17.546c2.217.145 3.911 2.026 3.78 4.192-.136 2.18-2.046 3.87-4.26 3.727-2.22-.127-3.914-2.014-3.786-4.191a4.018 4.018 0 014.266-3.728zm10.163-5.94c2.472.15 4.358 2.244 4.21 4.692-.148 2.41-2.302 4.296-4.759 4.145-2.46-.142-4.35-2.264-4.219-4.692.172-2.426 2.314-4.29 4.768-4.145zm20.185 43.3c1.253 0 2.273-1.011 2.273-2.243 0-1.242-1.02-2.23-2.273-2.23-1.264 0-2.276.988-2.276 2.23 0 1.232 1.012 2.242 2.276 2.242zM73.39 94.714c-1.807 0-3.28-1.464-3.28-3.234 0-1.777 1.473-3.223 3.28-3.223 1.8 0 3.285 1.446 3.285 3.222 0 1.772-1.485 3.235-3.285 3.235zm-5.137 8.35c-2.225 0-4.017-1.792-4.017-3.966 0-2.213 1.792-3.983 4.017-3.983 2.214 0 4.021 1.77 4.021 3.983 0 2.174-1.808 3.966-4.02 3.966zm-13.813 3.983c-.302-.572-.442-1.21-.442-1.898 0-2.436 2.009-4.408 4.474-4.408 2.478 0 4.487 1.972 4.487 4.408 0 .688-.14 1.326-.427 1.898H54.44zm-11.27 0a5.562 5.562 0 014.08-1.776c1.609 0 3.054.691 4.083 1.776H43.17zm1.677-46.132c1.02 0 1.845-.813 1.845-1.812 0-1.001-.825-1.811-1.845-1.811-1.012 0-1.846.81-1.846 1.811 0 .999.834 1.812 1.846 1.812zM4.36 108.169V27.446h1.614v80.723H4.359zm82.337 0V27.446h1.614v80.723h-1.614z" fill="#fff"/><path fill-rule="evenodd" clip-rule="evenodd" d="M88.31 108.169H4.36v-1.614h83.95v1.614z" fill="#fff"/></svg>