<svg width="58" height="83" fill="none" xmlns="http://www.w3.org/2000/svg"><path fill-rule="evenodd" clip-rule="evenodd" d="M47.1 5.06c-.617 0-1.17-.248-1.583-.654a2.178 2.178 0 01-.668-1.56c0-.598.263-1.166.668-1.562.413-.4.966-.654 1.584-.654.621 0 1.19.255 1.592.654.404.396.661.959.661 1.563 0 .61-.257 1.167-.661 1.559v.013c-.401.393-.97.641-1.592.641zm-3.172 5.165c-.75 0-1.43-.292-1.919-.78a2.664 2.664 0 01-.786-1.893c0-.733.301-1.406.786-1.891a2.743 2.743 0 011.919-.78c.743 0 1.43.302 1.922.78.486.496.783 1.158.783 1.891a2.66 2.66 0 01-.783 1.892c-.491.49-1.179.78-1.922.78zm-6.048 4.053a3.01 3.01 0 01-2.127-.877 2.89 2.89 0 01-.873-2.072v-.007c0-.807.336-1.557.873-2.09a3.027 3.027 0 012.127-.861c.821 0 1.578.33 2.111.861.544.533.879 1.282.879 2.09a2.91 2.91 0 01-.879 2.086c-.533.546-1.29.87-2.111.87zm9.22.716a2.253 2.253 0 01-1.583-.659 2.207 2.207 0 01-.668-1.56c0-.607.263-1.173.668-1.572.4-.403.966-.655 1.584-.655a2.25 2.25 0 012.253 2.226c0 .605-.257 1.162-.661 1.561-.401.4-.97.659-1.592.659zm8.163.996v50.257H2.715V15.781h18.17a2.977 2.977 0 011.709-1.147c.143-.027.295-.05.445-.065.154-.025.3-.025.45 0h.008c.688.027 1.32.306 1.805.741.092.069.184.162.272.27.057.054.11.118.158.201h1.719a1.468 1.468 0 01-.064-.235c-.013-.045-.03-.078-.032-.121a3.797 3.797 0 01-.055-.68c0-.978.41-1.874 1.05-2.518a3.642 3.642 0 012.573-1.05c.985 0 1.9.4 2.558 1.05a3.508 3.508 0 011.051 2.518c0 .336-.037.655-.125.969 0 .013 0 .043-.02.067h7.45c.2-.236.43-.439.689-.597.067-.03.118-.062.174-.094h.004a2.81 2.81 0 011.224-.295c.629 0 1.215.227 1.68.583.085.068.17.147.254.22.055.064.103.125.156.182h9.246v.21" fill="#31A49A"/><path fill-rule="evenodd" clip-rule="evenodd" d="M36.467 75.43c0 2.064 1.146 4.115 3.549 4.115 2.395 0 3.542-2.044 3.542-4.116 0-2.062-1.148-4.114-3.542-4.114-2.403 0-3.55 2.063-3.55 4.114zm-22.93-5.627h2.167v4.671h4.965v-4.671h2.165v11.25h-2.165v-4.66h-4.965v4.66h-2.167v-11.25zm21.145 11.251l-4.74-6.168 4.701-5.083h-2.479l-4.969 5.222v-5.222h-2.16v11.25h2.16v-3.218l1.387-1.5 3.777 4.718h2.323v.001zm-26.449-1.92H4.092l1.141-7.42h3v7.42zm3.91 0h-1.75v-9.331H3.336l-1.44 9.33H.3V83h2.167v-1.946h7.508V83h2.168v-3.866zm41.615 0h-4.132l1.133-7.42h2.999v7.42zm3.92 0h-1.747v-9.331h-7.045l-1.44 9.33h-1.613V83H48v-1.946h7.51V83h2.167v-3.866zm-23.27-3.705c0 2.978 1.816 5.913 5.608 5.913 3.788 0 5.607-2.935 5.607-5.913 0-2.981-1.82-5.912-5.607-5.912-3.792 0-5.608 2.941-5.608 5.912z" fill="#1D1D1B"/><path fill-rule="evenodd" clip-rule="evenodd" d="M28.079 47.66c.632 0 1.143-.508 1.143-1.125a1.143 1.143 0 00-2.287 0c0 .617.517 1.126 1.144 1.126zm17.68 1.083c-1.12 0-2.032-.899-2.032-2 0-1.1.912-2.013 2.031-2.013 1.115 0 2.035.913 2.035 2.014 0 1.1-.92 2-2.035 2zm-3.182 5.161c-1.379 0-2.489-1.102-2.489-2.453 0-1.355 1.11-2.461 2.489-2.461 1.37 0 2.49 1.106 2.49 2.461 0 1.351-1.12 2.453-2.49 2.453zm-6.059 4.054c-1.527 0-2.77-1.238-2.77-2.743 0-1.52 1.243-2.738 2.77-2.738 1.535 0 2.78 1.219 2.78 2.738 0 1.505-1.245 2.743-2.78 2.743zm-6.95 4.053c-1.877 0-3.414-1.515-3.414-3.377 0-1.841 1.537-3.345 3.413-3.345 1.877 0 3.404 1.504 3.404 3.345 0 1.862-1.527 3.377-3.404 3.377zm-13.733.327c1.373.09 2.422 1.262 2.342 2.604a2.377 2.377 0 01-.522 1.363h-3.93a2.409 2.409 0 01-.533-1.662c.09-1.348 1.276-2.388 2.643-2.305zm6.295-3.672c1.531.093 2.7 1.392 2.608 2.903-.092 1.51-1.426 2.665-2.948 2.562-1.523-.092-2.694-1.385-2.613-2.9.106-1.511 1.433-2.662 2.953-2.565zm18.849-14.419c1.002 0 1.81-.794 1.81-1.79 0-.986-.808-1.788-1.81-1.788-.998 0-1.807.802-1.807 1.788 0 .996.81 1.79 1.807 1.79zm-6.346-3.52c.776 0 1.408-.623 1.408-1.37 0-.774-.632-1.4-1.408-1.4a1.4 1.4 0 00-1.41 1.4c0 .747.627 1.37 1.41 1.37zM45.758 4.003c-1.119 0-2.031-.901-2.031-2.002C43.727.897 44.639 0 45.758 0c1.115 0 2.035.897 2.035 2.001 0 1.1-.92 2.002-2.035 2.002zm-3.181 5.16c-1.379 0-2.489-1.098-2.489-2.454s1.11-2.462 2.489-2.462c1.37 0 2.49 1.106 2.49 2.462s-1.12 2.455-2.49 2.455zm-6.059 4.05c-1.527 0-2.77-1.226-2.77-2.733 0-1.51 1.243-2.748 2.77-2.748 1.535 0 2.78 1.237 2.78 2.748 0 1.507-1.245 2.733-2.78 2.733zm-6.95 4.052c-1.877 0-3.414-1.507-3.414-3.372 0-1.852 1.537-3.35 3.413-3.35 1.877 0 3.404 1.498 3.404 3.35 0 1.865-1.527 3.372-3.404 3.372zm-13.733.336c1.373.074 2.422 1.25 2.342 2.6-.085 1.35-1.268 2.396-2.64 2.31-1.375-.076-2.424-1.256-2.344-2.606a2.489 2.489 0 012.642-2.304zm6.295-3.675c1.531.09 2.7 1.395 2.608 2.89-.092 1.524-1.426 2.677-2.948 2.584-1.523-.105-2.694-1.396-2.613-2.905.106-1.501 1.433-2.667 2.953-2.57zm-9.78 8.766c1.118.063 1.972 1.02 1.908 2.113-.068 1.09-1.044 1.948-2.157 1.878-1.122-.07-1.979-1.02-1.909-2.122.072-1.101 1.04-1.937 2.158-1.869zm8.77 11.852c.77 0 1.392-.61 1.392-1.374 0-.759-.623-1.368-1.391-1.368-.76 0-1.382.61-1.382 1.368 0 .765.621 1.374 1.382 1.374zm0 9.925a1.38 1.38 0 001.392-1.368c0-.756-.623-1.373-1.391-1.373a1.38 1.38 0 00-1.382 1.373c0 .755.621 1.368 1.382 1.368zm-5.678-3.048c1.018 0 1.841-.81 1.841-1.81 0-1.01-.823-1.812-1.841-1.812-1.008 0-1.83.802-1.83 1.813 0 1 .822 1.809 1.83 1.809zm-3.092-8.812a2.011 2.011 0 011.908 2.113c-.068 1.113-1.044 1.956-2.157 1.886-1.122-.064-1.979-1.03-1.909-2.12a2.023 2.023 0 012.158-1.879zm33.408-18.673a2.032 2.032 0 01-2.031-2.026c0-1.092.912-1.984 2.031-1.984 1.115 0 2.035.892 2.035 1.984 0 1.116-.92 2.026-2.035 2.026zm-3.181 5.161a2.478 2.478 0 01-2.489-2.472c0-1.356 1.11-2.458 2.489-2.458 1.37 0 2.49 1.102 2.49 2.458a2.485 2.485 0 01-2.49 2.472zm-6.059 4.043c-1.527 0-2.77-1.234-2.77-2.741 0-1.522 1.243-2.746 2.77-2.746 1.535 0 2.78 1.224 2.78 2.746 0 1.507-1.245 2.74-2.78 2.74zm-6.95 4.046c-1.877 0-3.414-1.502-3.414-3.367 0-1.837 1.537-3.344 3.413-3.344 1.877 0 3.404 1.506 3.404 3.344 0 1.865-1.527 3.367-3.404 3.367zm-13.733.338c1.373.09 2.422 1.255 2.342 2.596a2.485 2.485 0 01-2.64 2.31c-1.375-.08-2.424-1.249-2.344-2.597a2.489 2.489 0 012.642-2.31zm6.295-3.68c1.531.094 2.7 1.39 2.608 2.906-.092 1.493-1.426 2.662-2.948 2.568-1.523-.088-2.694-1.402-2.613-2.906.106-1.503 1.433-2.657 2.953-2.568zm12.503 26.82c.776 0 1.408-.626 1.408-1.389 0-.769-.632-1.38-1.408-1.38-.783 0-1.41.61-1.41 1.38a1.4 1.4 0 001.41 1.39zm11.125 8.002c-1.119 0-2.031-.907-2.031-2.003 0-1.1.912-1.996 2.031-1.996 1.115 0 2.035.895 2.035 1.996 0 1.097-.92 2.003-2.035 2.003zm-3.181 5.172c-1.379 0-2.489-1.11-2.489-2.456a2.47 2.47 0 012.489-2.468c1.37 0 2.49 1.097 2.49 2.468 0 1.346-1.12 2.456-2.49 2.456zm-8.556 2.467a2.48 2.48 0 01-.274-1.176c0-1.508 1.244-2.73 2.771-2.73 1.535 0 2.78 1.222 2.78 2.73 0 .426-.087.822-.265 1.176H34.02zm-6.981 0a3.446 3.446 0 012.527-1.1 3.48 3.48 0 012.53 1.1H27.04zm1.039-28.574c.632 0 1.143-.504 1.143-1.122 0-.62-.511-1.122-1.143-1.122-.627 0-1.144.501-1.144 1.122 0 .618.517 1.122 1.144 1.122z" fill="#fff"/></svg>