<svg width="30" height="30" fill="none" xmlns="http://www.w3.org/2000/svg"><path d="M9.283 23.635c1.037 0 1.886.867 1.886 1.939 0 1.059-.85 1.926-1.886 1.926-1.05 0-1.899-.867-1.899-1.926 0-1.072.85-1.94 1.899-1.94zm14.051 0c1.037 0 1.887.867 1.887 1.939 0 1.059-.85 1.926-1.887 1.926-1.049 0-1.898-.867-1.898-1.926 0-1.072.85-1.94 1.898-1.94zM3.473 2.5l.127.01 2.979.459a.956.956 0 01.774.867l.238 2.858c.037.41.362.715.762.715H25.22c.762 0 1.261.268 1.76.855.5.587.588 1.429.475 2.193l-1.186 8.368c-.225 1.609-1.574 2.794-3.16 2.794H9.483c-1.661 0-3.035-1.3-3.173-2.984L5.161 4.729l-1.886-.331A.959.959 0 012.513 3.3.956.956 0 013.6 2.51l-.127-.01zm17.638 9.628h-3.46a.938.938 0 00-.936.957c0 .523.412.956.937.956h3.46a.946.946 0 00.936-.956.938.938 0 00-.937-.957z" fill="#989898"/></svg>