<svg width="30" height="30" fill="none" xmlns="http://www.w3.org/2000/svg"><path d="M19.562 2.5c.53-.001.95.411.952.96v.938c3.444.27 5.719 2.616 5.722 6.214l.014 10.532c.005 3.924-2.46 6.337-6.41 6.344l-9.65.012c-3.926.005-6.421-2.466-6.426-6.4L3.75 10.69c-.005-3.62 2.19-5.96 5.633-6.276l-.002-.937c0-.55.407-.963.95-.963.543-.002.95.41.951.96l.001.875 7.331-.01-.001-.875c-.001-.55.406-.962.95-.963zm.504 17.74h-.013a1.041 1.041 0 00-1.01 1.064 1.06 1.06 0 001.026 1.061 1.056 1.056 0 001.047-1.064c0-.588-.47-1.061-1.05-1.061zm-10.17.001a1.066 1.066 0 00-1.01 1.076 1.026 1.026 0 001.062.998c.557-.025 1-.5.974-1.076a1.02 1.02 0 00-1.026-.998zm5.085-.006a1.068 1.068 0 00-1.01 1.076 1.028 1.028 0 001.062.998c.555-.026 1-.501.973-1.077a1.02 1.02 0 00-1.025-.997zM9.89 15.743a1.065 1.065 0 00-1.01 1.076 1.027 1.027 0 001.063.998c.555-.025.998-.5.973-1.075a1.02 1.02 0 00-1.026-.999zm5.086-.043a1.066 1.066 0 00-1.01 1.075 1.027 1.027 0 001.062.999c.555-.027.998-.501.973-1.076a1.02 1.02 0 00-1.025-.998zm5.085.006a1.035 1.035 0 00-1.011 1.05v.013c.012.575.481 1.01 1.05.998.555-.013.999-.49.986-1.064a1.037 1.037 0 00-1.025-.997zm-1.444-9.444l-7.331.01.001 1.01c0 .54-.406.964-.949.964a.94.94 0 01-.952-.96v-.963c-2.407.241-3.74 1.656-3.735 4.365v.389l18.686-.025v-.437c-.053-2.686-1.4-4.096-3.82-4.306l.002.962a.949.949 0 01-.95.964.94.94 0 01-.951-.961l-.001-1.012z" fill="#989898"/></svg>