<svg width="30" height="30" fill="none" xmlns="http://www.w3.org/2000/svg"><path d="M12.454 24.035c.625-.132 4.433-.132 5.058 0 .534.123 1.111.412 1.111 1.041-.03.6-.382 1.13-.868 1.468-.63.491-1.37.802-2.142.914a4.743 4.743 0 01-1.26 0 4.522 4.522 0 01-2.141-.915c-.487-.336-.839-.868-.87-1.467 0-.63.578-.918 1.112-1.041zM15.056 2.5c2.6 0 5.257 1.234 6.835 3.28 1.023 1.319 1.493 2.636 1.493 4.683v.532c0 1.57.415 2.496 1.328 3.562.692.786.913 1.794.913 2.888 0 1.093-.359 2.13-1.078 2.972a5.67 5.67 0 01-3.625 1.767c-1.965.167-3.93.308-5.921.308-1.993 0-3.957-.084-5.921-.308a5.664 5.664 0 01-3.625-1.767 4.52 4.52 0 01-1.08-2.972c0-1.094.222-2.102.913-2.888.942-1.066 1.33-1.992 1.33-3.562v-.532c0-2.103.524-3.477 1.603-4.823C9.826 3.677 12.4 2.5 14.945 2.5h.111z" fill="#4F4F4F"/><circle cx="21" cy="5" r="5" fill="#FF5353"/></svg>