<svg width="30" height="30" fill="none" xmlns="http://www.w3.org/2000/svg"><path d="M20.837 2.5c4.251 0 6.651 2.412 6.663 6.663v11.675c0 4.25-2.412 6.662-6.663 6.662H9.163c-4.251 0-6.663-2.412-6.663-6.662V9.163C2.5 4.912 4.912 2.5 9.163 2.5h11.674zm-5.211 5.163a1.05 1.05 0 00-1.602.987v12.738c.064.537.513.938 1.038.938.539 0 .987-.4 1.037-.938V8.65a1.02 1.02 0 00-.473-.987zm-5.838 4.1a1.029 1.029 0 00-1.1 0 1.051 1.051 0 00-.488.988v8.637c.05.537.5.938 1.037.938.538 0 .987-.4 1.037-.938V12.75a1.052 1.052 0 00-.486-.987zM21.362 16.3a1.048 1.048 0 00-1.111 0 1.007 1.007 0 00-.476.988v4.1c.05.537.5.938 1.038.938.525 0 .974-.4 1.038-.938v-4.1a1.043 1.043 0 00-.49-.988z" fill="#989898"/></svg>