<svg width="30" height="30" fill="none" xmlns="http://www.w3.org/2000/svg"><path d="M24.987 23.692c.697 0 1.263.573 1.263 1.279 0 .707-.566 1.279-1.263 1.279H17.85a1.272 1.272 0 01-1.263-1.28c0-.705.566-1.278 1.263-1.278h7.137zm-4.95-19.068l1.844 1.464c.756.592 1.26 1.371 1.433 2.19.199.902-.014 1.788-.61 2.554L11.72 25.035a2.63 2.63 0 01-2.042 1.021L5.3 26.11a.5.5 0 01-.49-.39l-.995-4.313c-.173-.793 0-1.613.504-2.244l7.786-10.078a.39.39 0 01.53-.067l3.277 2.607c.212.174.504.268.81.228a1.18 1.18 0 001.02-1.303 1.312 1.312 0 00-.41-.793l-3.184-2.553a.473.473 0 01-.08-.657l1.234-1.6c1.14-1.465 3.13-1.6 4.735-.323z" fill="#989898"/></svg>