<svg width="30" height="30" fill="none" xmlns="http://www.w3.org/2000/svg"><path d="M15.025 2.5c7.1 0 12.475 5.821 12.475 12.481C27.5 22.705 21.2 27.5 15 27.5c-2.05 0-4.325-.55-6.15-1.627-.637-.389-1.175-.677-1.862-.451l-2.526.751c-.637.2-1.212-.3-1.024-.976l.837-2.805c.137-.388.112-.8-.088-1.126C3.112 19.288 2.5 17.122 2.5 15.019 2.5 8.434 7.763 2.5 15.025 2.5zm5.713 10.929c-.888 0-1.6.713-1.6 1.602 0 .877.712 1.603 1.6 1.603.887 0 1.6-.726 1.6-1.603 0-.889-.713-1.602-1.6-1.602zm-5.763 0a1.594 1.594 0 00-1.6 1.59c0 .889.713 1.602 1.6 1.615.888 0 1.6-.726 1.6-1.603 0-.889-.712-1.602-1.6-1.602zm-5.762 0c-.888 0-1.6.713-1.6 1.602 0 .877.724 1.603 1.6 1.603a1.612 1.612 0 001.6-1.603c0-.889-.713-1.602-1.6-1.602z" fill="#989898"/></svg>