<svg width="30" height="30" fill="none" xmlns="http://www.w3.org/2000/svg"><path d="M15.012 2.5c3.024 0 5.474 2.5 5.511 5.588h.256c3.365 0 6.096 2.812 6.096 6.262v6.9c0 3.45-2.731 6.25-6.096 6.25H9.221c-3.365 0-6.096-2.8-6.096-6.25v-6.9c0-3.45 2.731-6.262 6.096-6.262h.256c.024-1.5.597-2.9 1.634-3.95 1.048-1.063 2.39-1.6 3.901-1.638zm4.621 7.075c-.5 0-.914.425-.914.938v1.45c0 .512.414.937.914.937a.925.925 0 00.914-.938v-1.45a.925.925 0 00-.914-.937zm-9.376 0c-.5 0-.914.425-.914.938v1.45c0 .512.414.937.914.937a.925.925 0 00.915-.938v-1.45a.925.925 0 00-.915-.937zm4.755-5.2c-.939 0-1.914.388-2.621 1.1a3.849 3.849 0 00-1.085 2.613h7.388c-.036-2.05-1.67-3.713-3.682-3.713z" fill="#9B9B9B"/></svg>