<svg width="120" height="75" fill="none" xmlns="http://www.w3.org/2000/svg"><path d="M0 18a5 5 0 015-5h115v35a5 5 0 01-5 5H0V18z" fill="#9B51E0"/><g filter="url(#filter0_d_290_738)"><circle cx="59.5" cy="32.5" r="12.5" fill="#fff"/></g><path d="M64.824 27.35a1.297 1.297 0 011.79.014 1.264 1.264 0 01.047 1.767l-6.852 8.462a1.287 1.287 0 01-.92.407 1.304 1.304 0 01-.935-.373L53.41 33.14a1.273 1.273 0 01-.41-.908 1.258 1.258 0 01.377-.922 1.29 1.29 0 01.934-.372 1.302 1.302 0 01.92.405l3.596 3.549 5.964-7.504a.465.465 0 01.035-.037h-.002z" fill="#9B51E0"/><defs><filter id="filter0_d_290_738" x="22" y="0" width="75" height="75" filterUnits="userSpaceOnUse" color-interpolation-filters="sRGB"><feFlood flood-opacity="0" result="BackgroundImageFix"/><feColorMatrix in="SourceAlpha" values="0 0 0 0 0 0 0 0 0 0 0 0 0 0 0 0 0 0 127 0" result="hardAlpha"/><feOffset dy="5"/><feGaussianBlur stdDeviation="12.5"/><feComposite in2="hardAlpha" operator="out"/><feColorMatrix values="0 0 0 0 0 0 0 0 0 0 0 0 0 0 0 0 0 0 0.2 0"/><feBlend in2="BackgroundImageFix" result="effect1_dropShadow_290_738"/><feBlend in="SourceGraphic" in2="effect1_dropShadow_290_738" result="shape"/></filter></defs></svg>