<svg width="75" height="75" fill="none" xmlns="http://www.w3.org/2000/svg"><g filter="url(#filter0_d_115_3325)"><circle cx="37.5" cy="32.5" r="12.5" fill="#EB5757"/></g><path d="M38.822 25.454l-.277 10.185h-2.599l-.284-10.185h3.16zm-1.576 14.73a1.66 1.66 0 01-1.208-.496 1.623 1.623 0 01-.497-1.208 1.592 1.592 0 01.497-1.193 1.659 1.659 0 011.208-.497c.45 0 .845.166 1.186.497.34.331.514.73.518 1.193a1.652 1.652 0 01-.248.86 1.836 1.836 0 01-.618.617 1.614 1.614 0 01-.838.228z" fill="#fff"/><defs><filter id="filter0_d_115_3325" x="0" y="0" width="75" height="75" filterUnits="userSpaceOnUse" color-interpolation-filters="sRGB"><feFlood flood-opacity="0" result="BackgroundImageFix"/><feColorMatrix in="SourceAlpha" values="0 0 0 0 0 0 0 0 0 0 0 0 0 0 0 0 0 0 127 0" result="hardAlpha"/><feOffset dy="5"/><feGaussianBlur stdDeviation="12.5"/><feComposite in2="hardAlpha" operator="out"/><feColorMatrix values="0 0 0 0 0 0 0 0 0 0 0 0 0 0 0 0 0 0 0.2 0"/><feBlend in2="BackgroundImageFix" result="effect1_dropShadow_115_3325"/><feBlend in="SourceGraphic" in2="effect1_dropShadow_115_3325" result="shape"/></filter></defs></svg>