<svg width="34" height="40" fill="none" xmlns="http://www.w3.org/2000/svg"><path d="M18.142.2l13.274 4.453c1.486.496 2.491 1.861 2.5 3.391L34 21.325c.026 4.027-1.442 7.931-4.13 10.99-1.236 1.405-2.82 2.611-4.844 3.69l-7.136 3.814c-.224.118-.47.179-.717.181a1.527 1.527 0 01-.717-.173l-7.202-3.726c-2.046-1.061-3.644-2.25-4.893-3.634C1.63 29.439.111 25.552.085 21.519L0 8.248C-.008 6.716.979 5.34 2.457 4.826L15.68.213a3.777 3.777 0 012.46-.014zm6.348 14.237a1.54 1.54 0 00-2.137.012l-6.737 6.64-2.758-2.65a1.54 1.54 0 00-2.136.013 1.442 1.442 0 00.014 2.079l3.831 3.687a1.52 1.52 0 001.071.424 1.52 1.52 0 001.065-.438l7.799-7.688a1.444 1.444 0 00-.012-2.079z" fill="#31A49A"/></svg>