<svg width="21" height="21" fill="none" xmlns="http://www.w3.org/2000/svg"><path d="M14.875 8.803a1.25 1.25 0 10-2.5 0 1.25 1.25 0 002.5 0zm-6.25 0a1.25 1.25 0 10-2.5 0 1.25 1.25 0 002.5 0zm-.033 5.691a.626.626 0 10-.56 1.117c.73.365 1.612.535 2.468.535.856 0 1.738-.17 2.467-.535a.627.627 0 00.133-1.034.626.626 0 00-.692-.083c-.52.26-1.202.402-1.908.402s-1.387-.142-1.908-.402zM20.5 10.678a10 10 0 10-20 0 10 10 0 0020 0zm-18.75 0a8.75 8.75 0 1117.5 0 8.75 8.75 0 01-17.5 0z" fill="#636363"/></svg>