<svg width="18" height="18" fill="none" xmlns="http://www.w3.org/2000/svg"><path d="M5.189 14.757c.691 0 1.257.578 1.257 1.292 0 .706-.566 1.284-1.257 1.284-.7 0-1.266-.578-1.266-1.284 0-.714.566-1.292 1.266-1.292zm9.368 0c.69 0 1.257.578 1.257 1.292 0 .706-.566 1.284-1.257 1.284-.7 0-1.266-.578-1.266-1.284 0-.714.566-1.292 1.266-1.292zM1.316.667L1.4.674l1.986.305c.283.052.492.29.517.579l.158 1.905a.513.513 0 00.508.477h11.245c.508 0 .841.178 1.174.57.333.39.392.952.317 1.461l-.791 5.58a2.14 2.14 0 01-2.107 1.861H5.322c-1.107 0-2.023-.866-2.115-1.989l-.766-9.27-1.257-.221A.64.64 0 011.4.674L1.316.667zm11.759 6.418h-2.307a.625.625 0 00-.624.638.63.63 0 00.624.638h2.307a.63.63 0 00.624-.638.625.625 0 00-.624-.638z" fill="#fff"/></svg>