<svg width="30" height="28" fill="none" xmlns="http://www.w3.org/2000/svg"><path d="M18.525.5c1.455.015 2.64.764 3.33 2.113.178.356.427.875.687 1.424l.314.662.154.326.15.33c.06.104.165.18.3.18 3.6 0 6.54 2.936 6.54 6.532v8.9c0 3.596-2.94 6.533-6.54 6.533H6.54A6.542 6.542 0 010 20.967v-8.9a6.542 6.542 0 016.54-6.533c.12 0 .24-.06.285-.18l.09-.18c.42-.883.93-1.962 1.23-2.561C8.835 1.264 10.005.515 11.46.5h7.065zM15 10.104c-1.575 0-3.06.615-4.185 1.738-1.11 1.124-1.725 2.592-1.71 4.15A5.883 5.883 0 0015 21.883c1.62 0 3.09-.66 4.155-1.724a5.937 5.937 0 001.74-4.165 5.908 5.908 0 00-1.725-4.166A5.87 5.87 0 0015 10.104zm0 2.248c.975 0 1.89.374 2.58 1.064a3.613 3.613 0 011.065 2.577C18.63 18 17.01 19.633 15 19.633a3.62 3.62 0 01-2.58-1.063 3.612 3.612 0 01-1.065-2.577v-.015a3.52 3.52 0 011.05-2.547A3.633 3.633 0 0115 12.35zm8.415-2.607c-.75 0-1.35.614-1.35 1.363 0 .75.6 1.349 1.35 1.349.75 0 1.365-.6 1.365-1.349a1.37 1.37 0 00-1.365-1.363z" fill="#fff"/></svg>