<svg width="20" height="20" fill="none" xmlns="http://www.w3.org/2000/svg"><path d="M13.883 1.667c2.834 0 4.45 1.6 4.45 4.442v7.783c0 2.825-1.608 4.442-4.441 4.442H6.108c-2.841 0-4.441-1.617-4.441-4.442V6.109c0-2.842 1.6-4.442 4.441-4.442h7.775zM9.992 6.259a.69.69 0 00-.692.691V9.3H6.942a.723.723 0 00-.492.2.721.721 0 00-.2.492c0 .383.308.692.692.7H9.3v2.358a.69.69 0 00.692.692.69.69 0 00.691-.692v-2.358h2.367a.702.702 0 00.692-.7.69.69 0 00-.692-.692h-2.367V6.95a.69.69 0 00-.691-.691z" fill="#31A49A"/></svg>