<svg width="21" height="21" fill="none" xmlns="http://www.w3.org/2000/svg"><path d="M5.736 17.696c.864 0 1.572.723 1.572 1.615 0 .883-.708 1.606-1.572 1.606-.874 0-1.582-.723-1.582-1.606 0-.892.708-1.615 1.582-1.615zm11.71 0c.864 0 1.572.723 1.572 1.615 0 .883-.708 1.606-1.572 1.606-.874 0-1.582-.723-1.582-1.606 0-.892.708-1.615 1.582-1.615zM.895.083L1 .093l2.482.381a.796.796 0 01.645.723l.198 2.381a.64.64 0 00.635.596h14.057c.635 0 1.051.224 1.467.713.417.489.49 1.19.396 1.827l-.989 6.973c-.187 1.34-1.311 2.329-2.633 2.329H5.903c-1.384 0-2.53-1.084-2.644-2.487L2.302 1.941.73 1.665A.799.799 0 011 .092L.896.083zm14.699 8.024H12.71a.78.78 0 00-.78.797c0 .436.343.797.78.797h2.883a.787.787 0 00.781-.797.781.781 0 00-.78-.797z" fill="#31A49A"/></svg>